<svg width="134" height="135" viewBox="0 0 134 135" fill="none" xmlns="http://www.w3.org/2000/svg"><g filter="url(#filter0_d)"><path fill-rule="evenodd" clip-rule="evenodd" d="M67 95.925c5.73 0 11.322-1.699 16.073-4.872a28.993 28.993 0 0010.653-12.985 28.776 28.776 0 001.63-16.725A28.84 28.84 0 0087.43 46.54a28.93 28.93 0 00-31.546-6.244 28.82 28.82 0 00-12.968 10.686 28.864 28.864 0 00-4.837 16.09 28.938 28.938 0 008.49 20.413A28.929 28.929 0 0067 95.925zm0 18.079a47.063 47.063 0 0026.126-7.925 46.875 46.875 0 0017.307-21.098 47.06 47.06 0 002.659-27.171 46.92 46.92 0 00-12.882-24.067 46.987 46.987 0 00-24.084-12.848 47 47 0 00-27.154 2.693 47.134 47.134 0 00-21.081 17.343A46.954 46.954 0 0020 67.072a46.942 46.942 0 0013.79 33.175A47.09 47.09 0 0067 114.004z" fill="#2F2F2F"/><path d="M75.418 66.385h38.579v38.561a9.11 9.11 0 01-2.642 6.399 9.034 9.034 0 01-6.398 2.641H66.361V75.46c0-1.201.223-2.368.686-3.483a8.743 8.743 0 011.973-2.95 9.28 9.28 0 012.95-1.973 9.075 9.075 0 013.448-.669z" fill="#fff"/></g><defs><filter id="filter0_d" x="0" y="0" width="134" height="134.004" filterUnits="userSpaceOnUse" color-interpolation-filters="sRGB"><feFlood flood-opacity="0" result="BackgroundImageFix"/><feColorMatrix in="SourceAlpha" values="0 0 0 0 0 0 0 0 0 0 0 0 0 0 0 0 0 0 127 0"/><feOffset/><feGaussianBlur stdDeviation="10"/><feColorMatrix values="0 0 0 0 0 0 0 0 0 0 0 0 0 0 0 0 0 0 0.15 0"/><feBlend in2="BackgroundImageFix" result="effect1_dropShadow"/><feBlend in="SourceGraphic" in2="effect1_dropShadow" result="shape"/></filter></defs></svg>