<svg width="170" height="80" viewBox="0 0 170 80" fill="none" xmlns="http://www.w3.org/2000/svg"><g clip-path="url(#clip0)"><path d="M159.879 38.852a.589.589 0 00-.537-.35h-1.961a.585.585 0 00-.583.584v7.908a.59.59 0 01-.497.578l-5.346.829a.58.58 0 01-.671-.578V16.949c0-.321.263-.584.584-.584h9.665c1.336-.076 2.556.088 3.659.502a8.265 8.265 0 012.93 1.704 8.035 8.035 0 011.926 2.638c.49 1.01.77 2.066.846 3.181v5.585c0 1.372-.297 2.65-.887 3.84a7.895 7.895 0 01-2.107 2.668.608.608 0 00-.181.7l3.228 7.745a.59.59 0 01-.461.806l-5.807.81a.58.58 0 01-.613-.344l-3.187-7.348zm3.589-14c0-.386-.087-.748-.268-1.086a2.633 2.633 0 00-.654-.928 2.643 2.643 0 00-.928-.66 2.489 2.489 0 00-1.079-.233h-3.158a.585.585 0 00-.583.583v9.77c0 .321.262.584.583.584h3.158c.77 0 1.453-.286 2.042-.852.59-.596.887-1.278.887-2.055v-5.124zm-15.926-3.549a.586.586 0 01-.584.583h-11.935a.585.585 0 00-.583.584v6.566c0 .32.262.583.583.583h9.899c.321 0 .583.263.583.584v4.348a.585.585 0 01-.583.584h-9.899a.585.585 0 00-.583.583v6.566c0 .321.262.584.583.584h11.935c.321 0 .584.262.584.584v4.377a.586.586 0 01-.584.583h-18.326a.585.585 0 01-.583-.583V16.937c0-.32.262-.584.583-.584h18.326c.321 0 .584.263.584.584v4.366zm-22.254 19.19c-.011 0-.017.006-.017.017a8.89 8.89 0 01-.689 3.076 7.383 7.383 0 01-1.757 2.486c-.764.712-1.704 1.284-2.83 1.722-1.097.409-2.346.625-3.747.648h-9.852a.586.586 0 01-.584-.584V16.926c0-.321.263-.584.584-.584h9.852c1.453.024 2.737.269 3.858.724 1.149.461 2.101 1.068 2.865 1.833a7.106 7.106 0 011.722 2.638c.408.992.613 2.066.613 3.21V40.47c0 .011-.006.023-.018.023zm-9.309 2.404c.765 0 1.442-.28 2.026-.84.583-.584.881-1.26.881-2.025v-15.28c0-.764-.292-1.43-.881-1.99-.584-.583-1.261-.881-2.026-.881h-3.198a.586.586 0 00-.584.584v19.849c0 .32.263.584.584.584h3.198zm-22.994-4.016a.58.58 0 00-.537-.35h-1.961a.585.585 0 00-.584.584v7.896c0 .286-.21.531-.496.578l-5.334.829a.581.581 0 01-.672-.578V17.001c0-.321.263-.584.584-.584h9.653c1.337-.076 2.55.088 3.66.502a8.294 8.294 0 012.924 1.704 8.075 8.075 0 011.926 2.633c.49 1.01.77 2.066.846 3.175v5.573a8.533 8.533 0 01-.887 3.835 8.001 8.001 0 01-2.101 2.661.61.61 0 00-.187.7l3.222 7.734a.591.591 0 01-.456.805l-5.795.805a.58.58 0 01-.613-.344l-3.192-7.319zm3.577-13.983c0-.386-.087-.747-.268-1.086a2.628 2.628 0 00-.654-.928 2.674 2.674 0 00-.922-.66 2.495 2.495 0 00-1.08-.233h-3.151a.585.585 0 00-.584.584v9.758c0 .321.263.584.584.584h3.151c.77 0 1.448-.286 2.037-.852.59-.596.887-1.279.887-2.055v-5.112zM75.258 45.89a.578.578 0 01-.636-.408l-1.184-3.892a.588.588 0 00-.56-.415h-8.096a.586.586 0 00-.56.42l-1.67 5.697a.585.585 0 01-.478.414l-5.007.7a.587.587 0 01-.648-.723l7.622-29.678a.58.58 0 01.484-.432l7.967-1.103a.58.58 0 01.642.426l7.43 27.588a.581.581 0 01-.485.73l-4.82.677zm-9.332-10.995c-.1.368.181.736.566.736h4.698a.584.584 0 00.567-.736l-2.364-8.824c-.158-.578-.975-.578-1.127 0l-2.34 8.824zM54.26 40.48c-.012 0-.018.006-.018.018a8.602 8.602 0 01-.723 3.105 7.078 7.078 0 01-1.798 2.544c-.794.718-1.75 1.302-2.871 1.733-1.12.409-2.41.62-3.858.62h-.916c-1.506 0-2.843-.217-4.016-.654-1.144-.462-2.113-1.08-2.906-1.85a7.955 7.955 0 01-1.757-2.697 8.778 8.778 0 01-.613-3.274v-20.52c0-.293.216-.538.502-.578l5.253-.724a.585.585 0 01.665.578v21.238c0 .385.076.759.228 1.12.151.333.356.642.612.923.28.257.584.46.917.618.356.152.724.234 1.109.234h.916c.38 0 .741-.076 1.068-.234a2.82 2.82 0 00.916-.618c.28-.28.497-.59.648-.922.152-.362.228-.73.228-1.121V17.713c0-.292.216-.537.502-.578l5.252-.759a.582.582 0 01.666.578v23.508c.012.012 0 .018-.006.018z" fill="#2F2F2F"/><path d="M37.779 54.762l7.447 12.682a.88.88 0 00.817.432l77.185-5.749a.875.875 0 00.695-1.307l-9.922-17.246a.875.875 0 00-.875-.432L38.421 53.46a.867.867 0 00-.642 1.301z" fill="#FF8E25"/><path d="M122.457 52.597L40.364 63.552a.873.873 0 00-.636 1.313l4.295 7.22 4.115 6.845a.863.863 0 00.87.415l81.568-11.352a.874.874 0 00.636-1.301l-7.879-13.657a.875.875 0 00-.876-.438z" fill="#FF4141"/><path d="M57.587 61.847a4.233 4.233 0 011.727.315 4.514 4.514 0 011.43.917c.42.39.747.846.992 1.383a4.2 4.2 0 01.38 1.698 4.242 4.242 0 01-1.26 3.123 4.447 4.447 0 01-1.396.963 4.287 4.287 0 01-1.716.373l-.986.018a4.354 4.354 0 01-3.152-1.232 4.423 4.423 0 01-.974-1.383 3.725 3.725 0 01-.35-1.319.276.276 0 01.245-.292l2.247-.32c.175-.024.332.11.38.28.092.338.297.706.501.916.286.274.642.408 1.05.402l.987-.017a1.424 1.424 0 001.039-.438c.28-.286.414-.624.408-1.021a1.402 1.402 0 00-.443-1.027 1.439 1.439 0 00-1.05-.403l-.987.017a4.908 4.908 0 01-1.745-.274 4.531 4.531 0 01-1.407-.858c-.408-.362-.73-.8-.969-1.307a4.08 4.08 0 01-.379-1.681 4.149 4.149 0 01.321-1.71 4.45 4.45 0 01.922-1.413 4.504 4.504 0 011.378-.963 4.418 4.418 0 011.733-.373l.986-.017a4.233 4.233 0 011.728.315 4.511 4.511 0 011.43.916c.42.391.753.846.992 1.383.204.455.327.934.368 1.442a.276.276 0 01-.245.292l-2.393.332a.325.325 0 01-.356-.28c-.059-.38-.199-.829-.42-1.039a1.439 1.439 0 00-1.051-.402l-.986.017a1.424 1.424 0 00-1.04.438 1.403 1.403 0 00-.39 1.021c.005.409.145.718.42.928.286.21.636.315 1.05.31l.98-.03zM71.64 56a.286.286 0 01.257-.293l2.312-.297a.287.287 0 01.326.286l.304 20.608a.29.29 0 01-.245.291l-2.311.392a.29.29 0 01-.339-.286l-.128-10.973a.286.286 0 00-.298-.286l-2.749.047a.293.293 0 00-.286.298l.041 2.964a.29.29 0 01-.25.292l-2.376.345a.292.292 0 01-.333-.286l-.338-19.815a.29.29 0 01.245-.291l2.31-.391a.29.29 0 01.34.28l.303 13.832a.293.293 0 00.297.286l2.75-.047a.29.29 0 00.285-.298L71.641 56zm16.213 6.886a4.338 4.338 0 01-.35 1.594 3.824 3.824 0 01-.928 1.307 4.639 4.639 0 01-1.47.905c-.579.221-1.244.332-1.99.35l-.474.006c-.776.011-1.47-.088-2.083-.298a4.527 4.527 0 01-1.518-.916 4.048 4.048 0 01-.933-1.354 4.296 4.296 0 01-.345-1.658l-.11-6.361c.017-.56.134-1.092.35-1.594a4.01 4.01 0 01.904-1.307 4.255 4.255 0 011.47-.905c.59-.221 1.262-.332 2.014-.35l.473-.006c.776-.011 1.465.094 2.066.315.613.21 1.115.508 1.518.893.414.386.735.835.951 1.354.222.52.333 1.074.344 1.658l.111 6.367zm-4.785 1.32a1.38 1.38 0 00.554-.13 1.542 1.542 0 00.794-.799c.076-.187.11-.373.11-.572l-.105-6.128c-.005-.39-.163-.73-.472-1.01a1.385 1.385 0 00-1.04-.431l-.472.005a1.485 1.485 0 00-.572.129c-.17.082-.327.192-.467.338a1.541 1.541 0 00-.309.473c-.076.17-.11.356-.11.549l.104 6.128c.006.192.047.385.129.566a1.9 1.9 0 00.326.467c.146.128.31.228.479.303.187.076.38.111.578.106l.472.005zm21.898-15.905a.294.294 0 01.327.35l-3.175 15.584a.286.286 0 01-.245.227l-2.487.368a.294.294 0 01-.326-.216l-1.063-3.951c-.081-.298-.502-.286-.566.011l-.945 4.331a.292.292 0 01-.245.228l-2.148.303a.286.286 0 01-.321-.21l-4.01-14.608a.295.295 0 01.24-.368l1.955-.269c.146-.017.28.07.32.21l2.44 8.901c.082.298.514.28.567-.023l.892-5.025.018-.1a.292.292 0 01.245-.233l1.185-.17 1.155-.151a.27.27 0 01.292.187l.998 5.136c.064.315.52.315.572-.006l1.763-9.94a.297.297 0 01.245-.239l2.317-.327zm7.755 7.944a.298.298 0 01-.251.262l-3.373.485a.292.292 0 01-.333-.286V43.212c0-.146.105-.268.251-.286l4.739-.683a.292.292 0 01.333.315l-1.366 13.687zm-1.844 2.287c.723.047 1.26.28 1.611.695.367.42.531.91.49 1.477l-.082 1.295a2.095 2.095 0 01-.706 1.313c-.397.35-.946.502-1.652.456l-.56-.035c-.724-.047-1.272-.28-1.64-.7a2.04 2.04 0 01-.467-1.477l.088-1.296a2.09 2.09 0 01.706-1.313c.414-.345.969-.496 1.651-.456l.561.041z" fill="#fff"/><path d="M38.17 11.235c0 .163.128.292.291.292h3.712c.164 0 .292.128.292.292v2.363a.289.289 0 01-.292.292h-7.038a.289.289 0 01-.292-.292V.292c0-.164.128-.292.292-.292h2.743c.163 0 .291.128.291.292v10.943zm16.107-8.679a.289.289 0 01-.292.292h-4.407a.289.289 0 00-.291.292v2.224c0 .163.128.291.291.291h3.537a.29.29 0 01.292.292v2.265a.289.289 0 01-.292.292h-3.537a.289.289 0 00-.291.291v2.522c0 .163.128.291.291.291h4.407a.29.29 0 01.292.292v2.282a.289.289 0 01-.292.292h-7.75a.289.289 0 01-.293-.292V.292A.29.29 0 0146.234 0h7.751a.29.29 0 01.292.292v2.264z" fill="#2F2F2F"/><path fill-rule="evenodd" clip-rule="evenodd" d="M15.992 42.348a9.85 9.85 0 005.468-1.657 9.865 9.865 0 003.624-4.418 9.791 9.791 0 00.555-5.69 9.844 9.844 0 00-13.43-7.161 9.806 9.806 0 00-4.412 3.635 9.846 9.846 0 001.243 12.42 9.843 9.843 0 006.952 2.871zm0 6.152c3.163 0 6.256-.94 8.888-2.697a15.952 15.952 0 005.889-7.178 16.011 16.011 0 00.905-9.245 15.986 15.986 0 00-12.577-12.56 15.99 15.99 0 00-9.24.916 16.037 16.037 0 00-7.172 5.901A15.976 15.976 0 000 32.532a15.972 15.972 0 004.692 11.287 16.02 16.02 0 0011.3 4.68z" fill="#2F2F2F"/><path d="M18.856 32.298h13.126v13.12a3.1 3.1 0 01-.899 2.177 3.074 3.074 0 01-2.177.899H15.774V35.385c0-.408.076-.805.234-1.184.152-.374.38-.718.671-1.004.286-.286.63-.514 1.004-.672a3.1 3.1 0 011.173-.227z" fill="#FF4141"/></g><defs><clipPath id="clip0"><path fill="#fff" d="M0 0h170v79.362H0z"/></clipPath></defs></svg>